<mxfile host="app.diagrams.net" modified="2023-10-01T18:17:47.213Z" agent="Mozilla/5.0 (Windows NT 10.0; Win64; x64) AppleWebKit/537.36 (KHTML, like Gecko) Chrome/105.0.0.0 Safari/537.36 Edg/105.0.1343.53" version="22.0.0" etag="JSaHsKRZSbdtJfiSQdNS" type="github">
  <diagram name="Page-1" id="kW47qs0X2uHOvKJIalrH">
    <mxGraphModel>
      <root>
        <mxCell id="0" />
        <mxCell id="1" parent="0" />
      </root>
    </mxGraphModel>
  </diagram>
</mxfile>
